<svg id="visual" viewBox="0 0 900 600" width="900" height="600" xmlns="http://www.w3.org/2000/svg" xmlns:xlink="http://www.w3.org/1999/xlink" version="1.1"><rect x="0" y="0" width="900" height="600" fill="#fff"></rect><path d="M0 403L21.5 405.3C43 407.7 86 412.3 128.8 416.5C171.7 420.7 214.3 424.3 257.2 425C300 425.7 343 423.3 385.8 429.8C428.7 436.3 471.3 451.7 514.2 458.3C557 465 600 463 642.8 452.2C685.7 441.3 728.3 421.7 771.2 412.5C814 403.3 857 404.7 878.5 405.3L900 406L900 601L878.5 601C857 601 814 601 771.2 601C728.3 601 685.7 601 642.8 601C600 601 557 601 514.2 601C471.3 601 428.7 601 385.8 601C343 601 300 601 257.2 601C214.3 601 171.7 601 128.8 601C86 601 43 601 21.5 601L0 601Z" fill="#f5f5f5"></path><path d="M0 435L21.5 437.3C43 439.7 86 444.3 128.8 445C171.7 445.7 214.3 442.3 257.2 441.5C300 440.7 343 442.3 385.8 451.7C428.7 461 471.3 478 514.2 487.3C557 496.7 600 498.3 642.8 491.7C685.7 485 728.3 470 771.2 460.2C814 450.3 857 445.7 878.5 443.3L900 441L900 601L878.5 601C857 601 814 601 771.2 601C728.3 601 685.7 601 642.8 601C600 601 557 601 514.2 601C471.3 601 428.7 601 385.8 601C343 601 300 601 257.2 601C214.3 601 171.7 601 128.8 601C86 601 43 601 21.5 601L0 601Z" fill="#d6e6ea"></path><path d="M0 490L21.5 495.3C43 500.7 86 511.3 128.8 508.3C171.7 505.3 214.3 488.7 257.2 483.5C300 478.3 343 484.7 385.8 484.7C428.7 484.7 471.3 478.3 514.2 476.2C557 474 600 476 642.8 481C685.7 486 728.3 494 771.2 496.2C814 498.3 857 494.7 878.5 492.8L900 491L900 601L878.5 601C857 601 814 601 771.2 601C728.3 601 685.7 601 642.8 601C600 601 557 601 514.2 601C471.3 601 428.7 601 385.8 601C343 601 300 601 257.2 601C214.3 601 171.7 601 128.8 601C86 601 43 601 21.5 601L0 601Z" fill="#b7d8df"></path><path d="M0 510L21.5 511.3C43 512.7 86 515.3 128.8 518.8C171.7 522.3 214.3 526.7 257.2 527.8C300 529 343 527 385.8 524.7C428.7 522.3 471.3 519.7 514.2 524.3C557 529 600 541 642.8 543.8C685.7 546.7 728.3 540.3 771.2 536.7C814 533 857 532 878.5 531.5L900 531L900 601L878.5 601C857 601 814 601 771.2 601C728.3 601 685.7 601 642.8 601C600 601 557 601 514.2 601C471.3 601 428.7 601 385.8 601C343 601 300 601 257.2 601C214.3 601 171.7 601 128.8 601C86 601 43 601 21.5 601L0 601Z" fill="#96c9d4"></path><path d="M0 568L21.5 567.3C43 566.7 86 565.3 128.8 567.2C171.7 569 214.3 574 257.2 572.3C300 570.7 343 562.3 385.8 557.7C428.7 553 471.3 552 514.2 552.3C557 552.7 600 554.3 642.8 556.5C685.7 558.7 728.3 561.3 771.2 564.2C814 567 857 570 878.5 571.5L900 573L900 601L878.5 601C857 601 814 601 771.2 601C728.3 601 685.7 601 642.8 601C600 601 557 601 514.2 601C471.3 601 428.7 601 385.8 601C343 601 300 601 257.2 601C214.3 601 171.7 601 128.8 601C86 601 43 601 21.5 601L0 601Z" fill="#73bbc9"></path></svg>